<svg width="29" height="22" viewBox="0 0 29 22" fill="none" xmlns="http://www.w3.org/2000/svg">
<path d="M13.0333 17.9926H15.5397V16.6695C16.7333 16.5107 17.7597 16.1667 18.619 15.6374C19.4784 15.1082 19.9081 14.3231 19.9081 13.2823C19.9081 12.5413 19.6216 11.8621 19.0487 11.2447C18.4758 10.6272 17.33 10.0891 15.6114 9.63046C14.1791 9.27763 13.1885 8.9689 12.6395 8.70427C12.0904 8.43965 11.8159 8.07799 11.8159 7.61931C11.8159 7.16063 12.0367 6.79897 12.4783 6.53435C12.9199 6.26972 13.5585 6.13741 14.394 6.13741C15.1578 6.13741 15.7546 6.27413 16.1842 6.54758C16.6139 6.82102 16.9242 7.16063 17.1152 7.56638L19.4068 6.87836C19.1442 6.2609 18.6608 5.72283 17.9566 5.26415C17.2525 4.80546 16.4707 4.54966 15.6114 4.49673V3.17361H13.1049V4.49673C11.9114 4.69079 10.9805 5.07891 10.3121 5.66108C9.64371 6.24326 9.30952 6.896 9.30952 7.61931C9.30952 8.44847 9.63774 9.11885 10.2942 9.63046C10.9506 10.1421 11.983 10.5831 13.3914 10.9536C14.8952 11.3593 15.9396 11.721 16.5244 12.0385C17.1092 12.3561 17.4016 12.7707 17.4016 13.2823C17.4016 13.8645 17.1212 14.2923 16.5602 14.5657C15.9992 14.8392 15.3249 14.9759 14.5372 14.9759C13.7494 14.9759 13.0512 14.7951 12.4425 14.4334C11.8338 14.0717 11.3863 13.5293 11.0998 12.806L8.73663 13.494C9.07082 14.3408 9.59 15.0244 10.2942 15.5448C10.9984 16.0653 11.9114 16.4225 13.0333 16.6166V17.9926ZM14.3223 21.1681C12.3411 21.1681 10.4792 20.8903 8.73663 20.3345C6.99408 19.7788 5.4783 19.0246 4.18928 18.072C2.90027 17.1193 1.87981 15.9991 1.12788 14.7113C0.375961 13.4234 0 12.0474 0 10.5831C0 9.11885 0.375961 7.7428 1.12788 6.45496C1.87981 5.16712 2.90027 4.04687 4.18928 3.09422C5.4783 2.14157 6.99408 1.38739 8.73663 0.831677C10.4792 0.275964 12.3411 -0.00189209 14.3223 -0.00189209C16.3036 -0.00189209 18.1655 0.275964 19.9081 0.831677C21.6506 1.38739 23.1664 2.14157 24.4554 3.09422C25.7444 4.04687 26.7649 5.16712 27.5168 6.45496C28.2687 7.7428 28.6447 9.11885 28.6447 10.5831C28.6447 12.0474 28.2687 13.4234 27.5168 14.7113C26.7649 15.9991 25.7444 17.1193 24.4554 18.072C23.1664 19.0246 21.6506 19.7788 19.9081 20.3345C18.1655 20.8903 16.3036 21.1681 14.3223 21.1681Z" fill="white"/>
</svg>
